<svg width="30" height="30" viewBox="0 0 30 30" fill="none" xmlns="http://www.w3.org/2000/svg">
<mask id="mask0_204_172" style="mask-type:alpha" maskUnits="userSpaceOnUse" x="0" y="0" width="30" height="30">
<rect width="30" height="30" fill="#D9D9D9"/>
</mask>
<g mask="url(#mask0_204_172)">
<path d="M10 21.25C10.3542 21.25 10.651 21.1302 10.8906 20.8906C11.1302 20.651 11.25 20.3542 11.25 20C11.25 19.6458 11.1302 19.349 10.8906 19.1094C10.651 18.8698 10.3542 18.75 10 18.75C9.64583 18.75 9.34896 18.8698 9.10938 19.1094C8.86979 19.349 8.75 19.6458 8.75 20C8.75 20.3542 8.86979 20.651 9.10938 20.8906C9.34896 21.1302 9.64583 21.25 10 21.25ZM10 16.25C10.3542 16.25 10.651 16.1302 10.8906 15.8906C11.1302 15.651 11.25 15.3542 11.25 15C11.25 14.6458 11.1302 14.349 10.8906 14.1094C10.651 13.8698 10.3542 13.75 10 13.75C9.64583 13.75 9.34896 13.8698 9.10938 14.1094C8.86979 14.349 8.75 14.6458 8.75 15C8.75 15.3542 8.86979 15.651 9.10938 15.8906C9.34896 16.1302 9.64583 16.25 10 16.25ZM10 11.25C10.3542 11.25 10.651 11.1302 10.8906 10.8906C11.1302 10.651 11.25 10.3542 11.25 10C11.25 9.64583 11.1302 9.34896 10.8906 9.10938C10.651 8.86979 10.3542 8.75 10 8.75C9.64583 8.75 9.34896 8.86979 9.10938 9.10938C8.86979 9.34896 8.75 9.64583 8.75 10C8.75 10.3542 8.86979 10.651 9.10938 10.8906C9.34896 11.1302 9.64583 11.25 10 11.25ZM13.75 21.25H21.25V18.75H13.75V21.25ZM13.75 16.25H21.25V13.75H13.75V16.25ZM13.75 11.25H21.25V8.75H13.75V11.25ZM6.25 26.25C5.5625 26.25 4.97396 26.0052 4.48438 25.5156C3.99479 25.026 3.75 24.4375 3.75 23.75V6.25C3.75 5.5625 3.99479 4.97396 4.48438 4.48438C4.97396 3.99479 5.5625 3.75 6.25 3.75H23.75C24.4375 3.75 25.026 3.99479 25.5156 4.48438C26.0052 4.97396 26.25 5.5625 26.25 6.25V23.75C26.25 24.4375 26.0052 25.026 25.5156 25.5156C25.026 26.0052 24.4375 26.25 23.75 26.25H6.25ZM6.25 23.75H23.75V6.25H6.25V23.75Z" fill="#757575"/>
</g>
</svg>
